<svg width="934" height="937" viewBox="0 0 934 937" fill="none" xmlns="http://www.w3.org/2000/svg">
<path d="M455.934 3.2201C453.4 4.95343 369.8 73.2201 270.067 154.953C170.334 236.687 70.4671 318.42 48.0671 336.687C25.6671 354.82 5.80046 371.62 3.80046 373.887C-5.79954 384.687 4.20046 401.087 18.0671 397.353C20.3338 396.687 36.7338 384.153 54.7338 369.487C72.6005 354.82 87.8005 342.82 88.3338 342.82C88.8671 342.82 89.4005 474.02 89.4005 634.287C89.4005 925.62 89.4005 925.753 92.0671 929.62C93.6671 931.753 96.8671 934.02 99.8004 934.82C107.4 936.82 824.6 936.553 830.6 934.42C833.134 933.487 836.467 931.087 837.934 929.087L840.734 925.353L841.4 634.153L842.067 342.953L864.734 361.62C914.067 402.287 913 401.487 919.4 401.487C924.067 401.487 925.934 400.687 929.267 397.353C935.134 391.487 935.134 383.753 929.134 377.087C925.934 373.62 563.667 75.7534 478.334 6.4201C469.267 -1.04657 463.4 -1.84657 455.934 3.2201ZM641.267 178.153L811.934 318.153L811.667 612.153L811.4 906.153L465.134 906.553L118.734 906.82V611.887L118.867 316.82L291.667 175.22C463.134 34.8201 464.6 33.6201 467.667 35.8868C469.267 37.0868 547.4 101.087 641.267 178.153Z" fill="black"/>
</svg>
